<svg width="80" height="80" viewBox="0 0 80 80" fill="none" xmlns="http://www.w3.org/2000/svg">
<path d="M42.4763 71.1641C40.6313 70.0552 37.5907 70.8135 37.5907 70.8135C37.0821 70.9412 36.3866 70.7201 36.0447 70.3229L33.368 66.7051C33.0899 66.2621 33.0841 65.5306 33.3556 65.0829C33.3556 65.0829 34.9777 62.3996 34.4586 60.3125C33.9433 58.2245 31.2551 56.6128 31.2551 56.6128C30.8063 56.3423 30.4692 55.6954 30.5074 55.1726L31.177 50.7252C31.2942 50.2137 31.8056 49.6935 32.3133 49.5668C32.3133 49.5668 35.3548 48.8182 36.4674 46.973C37.5781 45.128 36.8151 42.0911 36.8151 42.0911C36.6893 41.5825 36.9103 40.887 37.3066 40.5451L40.9273 37.8703C41.3721 37.5921 42.1009 37.5882 42.5494 37.8589C42.5494 37.8589 45.229 39.482 47.3198 38.962C49.4106 38.442 51.0205 35.7538 51.0205 35.7538C51.2901 35.3051 51.9379 34.967 52.4607 35.0042L56.9111 35.6748C57.4207 35.7929 57.9427 36.3034 58.0666 36.8121C58.0666 36.8121 58.8162 39.8545 60.6623 40.9681C62.5064 42.0798 65.547 41.3177 65.547 41.3177C65.606 41.3034 65.6728 41.3082 65.7347 41.3025L65.7338 17.8467L49.5405 2.60647L13.3433 2.60461C10.1998 2.60461 7.62793 5.17652 7.62793 8.32089V67.3786C7.62793 70.522 10.1998 73.0939 13.3433 73.0939H44.1757C43.768 72.3538 43.2097 71.6061 42.4763 71.1641Z" fill="#D3E4F8"/>
<path d="M56.2863 73.0938H57.1473C56.8597 73.0672 56.57 73.0652 56.2863 73.0938Z" fill="#DADEE0"/>
<path d="M58.0676 36.8109C57.9437 36.3022 57.4218 35.7906 56.912 35.6736L52.4616 35.003C51.9386 34.9658 51.291 35.3031 51.0214 35.7526C51.0214 35.7526 49.4125 38.4399 47.3208 38.9608C45.2291 39.4817 42.5504 37.8577 42.5504 37.8577C42.1016 37.5872 41.3731 37.5921 40.9282 37.8691L37.3076 40.5439C36.9113 40.8858 36.6912 41.5813 36.816 42.0899C36.816 42.0899 37.579 45.1268 36.4683 46.9718C35.3558 48.8168 32.3143 49.5657 32.3143 49.5657C31.8065 49.6924 31.2951 50.2124 31.1779 50.724L30.5083 55.1714C30.4702 55.6944 30.8075 56.3411 31.256 56.6116C31.256 56.6116 33.9442 58.2233 34.4596 60.3113C34.9786 62.3984 33.3565 65.0817 33.3565 65.0817C33.0851 65.5294 33.0908 66.26 33.369 66.7039L36.0456 70.3218C36.3876 70.719 37.083 70.94 37.5917 70.8124C37.5917 70.8124 40.6322 70.054 42.4772 71.1629C44.3213 72.2736 45.0692 75.3178 45.0692 75.3178C45.1941 75.8265 45.715 76.3381 46.2248 76.4551L50.6732 77.1238C51.1961 77.161 51.8449 76.8237 52.1163 76.3742C52.1163 76.3742 53.7271 73.6899 55.816 73.1707C57.905 72.6505 60.5865 74.2756 60.5865 74.2756C61.0352 74.5461 61.7638 74.5413 62.2086 74.2631L65.8274 71.5902C66.2237 71.2483 66.4447 70.5528 66.3189 70.0442C66.3189 70.0442 65.5578 67.0008 66.6648 65.1565C67.7812 63.3115 70.8246 62.5636 70.8246 62.5636C71.3323 62.4388 71.8449 61.9169 71.961 61.4071L72.6326 56.9606C72.6698 56.4386 72.3325 55.791 71.883 55.5204C71.883 55.5204 69.193 53.9059 68.6739 51.8168C68.1548 49.7279 69.7788 47.0436 69.7788 47.0436C70.0503 46.596 70.0445 45.8643 69.7675 45.4215L67.0936 41.8045C66.7517 41.4073 66.0572 41.1882 65.5485 41.3139C65.5485 41.3139 62.5079 42.0769 60.6638 40.9644C58.8172 39.8544 58.0676 36.8109 58.0676 36.8109Z" fill="#1F6DCD"/>
<path d="M65.6632 17.7798L65.7337 17.8464L65.7356 30.2296V17.8464L65.6632 17.7798Z" fill="#E8ECEE"/>
<path d="M19.0584 19.2743H36.2044C36.9931 19.2743 37.6332 18.6341 37.6332 17.8455C37.6332 17.0559 36.9931 16.4166 36.2044 16.4166H19.0584C18.2697 16.4166 17.6295 17.0559 17.6295 17.8455C17.6295 18.6341 18.2695 19.2743 19.0584 19.2743Z" fill="#ED1B24"/>
<path d="M19.0584 28.7998H43.8249C44.6136 28.7998 45.2538 28.1596 45.2538 27.371C45.2538 26.5814 44.6136 25.9421 43.8249 25.9421H19.0584C18.2698 25.9421 17.6296 26.5814 17.6296 27.371C17.6296 28.1596 18.2696 28.7998 19.0584 28.7998Z" fill="#ED1B24"/>
<path d="M55.8138 49.017C59.7022 51.3621 60.9576 56.4194 58.6171 60.3086C56.2672 64.1997 51.2177 65.4561 47.3245 63.1119C43.4324 60.7677 42.177 55.7115 44.5193 51.8232C46.8655 47.9292 51.9236 46.6756 55.8138 49.017Z" fill="#1E1E1E"/>
<path d="M55.2575 17.8464H65.7356L49.5421 2.60547V12.1311C49.5421 15.2745 52.114 17.8464 55.2575 17.8464Z" fill="#ADCCF0"/>
<path opacity="0.2" d="M57.9913 50.9213C60.0802 53.535 60.4432 57.2768 58.6181 60.3097C57.0701 62.874 54.3505 64.2943 51.5615 64.2943C50.1155 64.2943 48.6534 63.9133 47.3254 63.114C46.9816 62.9064 46.6577 62.6777 46.3548 62.431L57.0034 73.0807C58.797 73.1949 60.5849 74.2781 60.5849 74.2781C60.806 74.4115 61.0945 74.4781 61.3851 74.4781C61.6834 74.4781 61.9823 74.4076 62.2073 74.2656L65.8261 71.5927C66.1481 71.3146 66.3548 70.8029 66.3537 70.3486C66.3528 70.2439 66.3412 70.1419 66.3174 70.0467C66.3174 70.0467 66.0631 69.0294 66.0621 67.8148C66.0621 66.928 66.1965 65.9363 66.6633 65.1581C67.3911 63.9561 68.9351 63.2197 69.9248 62.853L57.9913 50.9213Z" fill="#1E1E1E"/>
</svg>
