<svg width="80" height="80" viewBox="0 0 80 80" fill="none" xmlns="http://www.w3.org/2000/svg">
<path d="M42.4763 71.1641C40.6313 70.0552 37.5907 70.8135 37.5907 70.8135C37.0821 70.9412 36.3866 70.7201 36.0447 70.3229L33.368 66.7051C33.0899 66.2621 33.0841 65.5306 33.3556 65.0829C33.3556 65.0829 34.9777 62.3996 34.4586 60.3125C33.9433 58.2245 31.2551 56.6128 31.2551 56.6128C30.8063 56.3423 30.4692 55.6954 30.5074 55.1726L31.177 50.7252C31.2942 50.2137 31.8056 49.6935 32.3133 49.5668C32.3133 49.5668 35.3548 48.8182 36.4674 46.973C37.5781 45.128 36.8151 42.0911 36.8151 42.0911C36.6893 41.5825 36.9103 40.887 37.3066 40.5451L40.9273 37.8703C41.3721 37.5921 42.1009 37.5882 42.5494 37.8589C42.5494 37.8589 45.229 39.482 47.3198 38.962C49.4106 38.442 51.0205 35.7538 51.0205 35.7538C51.2901 35.3051 51.9379 34.967 52.4607 35.0042L56.9111 35.6748C57.4207 35.7929 57.9427 36.3034 58.0666 36.8121C58.0666 36.8121 58.8162 39.8545 60.6623 40.9681C62.5064 42.0798 65.547 41.3177 65.547 41.3177C65.606 41.3034 65.6728 41.3082 65.7347 41.3025L65.7338 17.8467L49.5405 2.60647L13.3433 2.60461C10.1998 2.60461 7.62793 5.17652 7.62793 8.32089V67.3786C7.62793 70.522 10.1998 73.0939 13.3433 73.0939H44.1757C43.768 72.3538 43.2097 71.6061 42.4763 71.1641Z" fill="white"/>
<path d="M56.2863 73.0938H57.1473C56.8597 73.0672 56.57 73.0652 56.2863 73.0938Z" fill="#DADEE0"/>
<path d="M58.0676 36.8109C57.9437 36.3023 57.4218 35.7906 56.912 35.6736L52.4616 35.0031C51.9386 34.9659 51.291 35.3032 51.0214 35.7527C51.0214 35.7527 49.4125 38.4399 47.3208 38.9609C45.2291 39.4818 42.5504 37.8578 42.5504 37.8578C42.1016 37.5873 41.3731 37.5921 40.9282 37.8692L37.3076 40.5439C36.9113 40.8859 36.6912 41.5813 36.816 42.09C36.816 42.09 37.579 45.1268 36.4683 46.9719C35.3558 48.8169 32.3143 49.5657 32.3143 49.5657C31.8065 49.6924 31.2951 50.2124 31.1779 50.724L30.5083 55.1715C30.4702 55.6945 30.8075 56.3412 31.256 56.6117C31.256 56.6117 33.9442 58.2234 34.4596 60.3114C34.9786 62.3985 33.3565 65.0818 33.3565 65.0818C33.0851 65.5294 33.0908 66.26 33.369 66.7039L36.0456 70.3218C36.3876 70.719 37.083 70.94 37.5917 70.8124C37.5917 70.8124 40.6322 70.0541 42.4772 71.1629C44.3213 72.2736 45.0692 75.3179 45.0692 75.3179C45.1941 75.8266 45.715 76.3382 46.2248 76.4552L50.6732 77.1239C51.1961 77.1611 51.8449 76.8238 52.1163 76.3743C52.1163 76.3743 53.7271 73.69 55.816 73.1707C57.905 72.6506 60.5865 74.2757 60.5865 74.2757C61.0352 74.5462 61.7638 74.5413 62.2086 74.2632L65.8274 71.5903C66.2237 71.2483 66.4447 70.5529 66.3189 70.0442C66.3189 70.0442 65.5578 67.0009 66.6648 65.1566C67.7812 63.3116 70.8246 62.5637 70.8246 62.5637C71.3323 62.4388 71.8449 61.917 71.961 61.4072L72.6326 56.9607C72.6698 56.4386 72.3325 55.791 71.883 55.5205C71.883 55.5205 69.193 53.906 68.6739 51.8169C68.1548 49.7279 69.7788 47.0437 69.7788 47.0437C70.0503 46.596 70.0445 45.8643 69.7675 45.4215L67.0936 41.8046C66.7517 41.4074 66.0572 41.1882 65.5485 41.314C65.5485 41.314 62.5079 42.077 60.6638 40.9644C58.8172 39.8545 58.0676 36.8109 58.0676 36.8109Z" fill="#D3E4F8"/>
<path d="M65.6632 17.7798L65.7337 17.8464L65.7356 30.2296V17.8464L65.6632 17.7798Z" fill="#E8ECEE"/>
<path d="M19.0584 19.2743H36.2044C36.9931 19.2743 37.6332 18.6341 37.6332 17.8455C37.6332 17.0559 36.9931 16.4166 36.2044 16.4166H19.0584C18.2697 16.4166 17.6295 17.0559 17.6295 17.8455C17.6295 18.6341 18.2695 19.2743 19.0584 19.2743Z" fill="#ED1B24"/>
<path d="M19.0584 28.7998H43.8249C44.6136 28.7998 45.2538 28.1596 45.2538 27.371C45.2538 26.5814 44.6136 25.9421 43.8249 25.9421H19.0584C18.2698 25.9421 17.6296 26.5814 17.6296 27.371C17.6296 28.1596 18.2696 28.7998 19.0584 28.7998Z" fill="#ED1B24"/>
<path d="M55.8138 49.017C59.7022 51.3621 60.9576 56.4194 58.6171 60.3086C56.2672 64.1997 51.2177 65.4561 47.3245 63.1119C43.4324 60.7677 42.177 55.7115 44.5193 51.8232C46.8655 47.9292 51.9236 46.6756 55.8138 49.017Z" fill="#1E1E1E"/>
<path d="M55.2575 17.8464H65.7356L49.5421 2.60547V12.1311C49.5421 15.2745 52.114 17.8464 55.2575 17.8464Z" fill="#D3E4F8"/>
<path opacity="0.1" d="M57.9913 50.9212C60.0802 53.535 60.4432 57.2767 58.6181 60.3097C57.0701 62.874 54.3505 64.2942 51.5615 64.2942C50.1155 64.2942 48.6534 63.9132 47.3254 63.1139C46.9816 62.9063 46.6577 62.6777 46.3548 62.431L57.0034 73.0806C58.797 73.1949 60.5849 74.278 60.5849 74.278C60.806 74.4114 61.0945 74.478 61.3851 74.478C61.6834 74.478 61.9823 74.4075 62.2073 74.2656L65.8261 71.5926C66.1481 71.3145 66.3548 70.8029 66.3537 70.3486C66.3528 70.2438 66.3412 70.1419 66.3174 70.0466C66.3174 70.0466 66.0631 69.0293 66.0621 67.8148C66.0621 66.9279 66.1965 65.9363 66.6633 65.158C67.3911 63.956 68.9351 63.2196 69.9248 62.8529L57.9913 50.9212Z" fill="#1E1E1E"/>
</svg>
