<svg width="80" height="80" viewBox="0 0 80 80" fill="none" xmlns="http://www.w3.org/2000/svg">
<path d="M72.4039 18.426C72.4039 15.2826 69.832 12.7107 66.6886 12.7107H23.8216C20.6781 12.7107 18.1062 15.2826 18.1062 18.426V71.7693C18.1062 74.9127 20.6781 77.4846 23.8216 77.4846H56.2058L72.3993 62.2437L72.4039 18.426Z" fill="white"/>
<path d="M18.106 18.426C18.106 15.2826 20.6779 12.7107 23.8214 12.7107H61.9256V7.94789C61.9256 4.80445 59.3537 2.23254 56.2102 2.23254H13.3432C10.1998 2.23254 7.6279 4.80445 7.6279 7.94789V61.2911C7.6279 64.4346 10.1998 67.0065 13.3432 67.0065H18.106V18.426Z" fill="#D3E4F8"/>
<path d="M61.922 62.2438H72.4002L56.2067 77.4847V67.9591C56.2067 64.8157 58.7786 62.2438 61.922 62.2438Z" fill="#D3E4F8"/>
<path d="M32.3945 37.9534H58.1136C58.9034 37.9534 59.5424 37.3133 59.5424 36.5246C59.5424 35.735 58.9032 35.0958 58.1136 35.0958H32.3945C31.605 35.0958 30.9657 35.735 30.9657 36.5246C30.9657 37.3133 31.6048 37.9534 32.3945 37.9534Z" fill="#ED1B24"/>
<path d="M32.3946 28.428H58.1137C58.9034 28.428 59.5425 27.7878 59.5425 26.9991C59.5425 26.2096 58.9032 25.5703 58.1137 25.5703H32.3946C31.605 25.5703 30.9657 26.2096 30.9657 26.9991C30.9657 27.7878 31.6048 28.428 32.3946 28.428Z" fill="#ED1B24"/>
<path d="M32.3945 47.4791H58.1136C58.9034 47.4791 59.5424 46.8389 59.5424 46.0502C59.5424 45.2607 58.9032 44.6214 58.1136 44.6214H32.3945C31.605 44.6214 30.9657 45.2607 30.9657 46.0502C30.9657 46.8389 31.6048 47.4791 32.3945 47.4791Z" fill="#ED1B24"/>
<path d="M32.3945 57.0046H46.6829C47.4725 57.0046 48.1117 56.3645 48.1117 55.5758C48.1117 54.786 47.4725 54.147 46.6829 54.147H32.3945C31.605 54.147 30.9657 54.786 30.9657 55.5758C30.9657 56.3645 31.6048 57.0046 32.3945 57.0046Z" fill="#ED1B24"/>
</svg>
