<svg width="80" height="80" viewBox="0 0 80 80" fill="none" xmlns="http://www.w3.org/2000/svg">
<path d="M48.0679 41.3821C45.6264 42.6156 42.8756 43.3272 39.9522 43.3272C37.067 43.3272 34.3502 42.6329 31.9317 41.4278C17.9537 45.0476 7.62793 57.7451 7.62793 72.8565H72.5561C72.5572 57.6785 62.141 44.9371 48.0679 41.3821Z" fill="#1F6DCD"/>
<path d="M48.5879 47.1375H31.4418L37.1572 55.7105L31.4418 72.8565H48.5879L42.8725 55.7105L48.5879 47.1375Z" fill="#ED1B24"/>
<path d="M40.1753 43.3273C50.1361 43.3273 58.211 35.2524 58.211 25.2916C58.211 15.3307 50.1361 7.25586 40.1753 7.25586C30.2144 7.25586 22.1396 15.3307 22.1396 25.2916C22.1396 35.2524 30.2144 43.3273 40.1753 43.3273Z" fill="#D3E4F8"/>
</svg>
