<svg width="80" height="80" viewBox="0 0 80 80" fill="none" xmlns="http://www.w3.org/2000/svg">
<path d="M72.4039 18.426C72.4039 15.2826 69.832 12.7107 66.6886 12.7107H23.8216C20.6781 12.7107 18.1062 15.2826 18.1062 18.426V71.7693C18.1062 74.9127 20.6781 77.4846 23.8216 77.4846H56.2058L72.3993 62.2437L72.4039 18.426Z" fill="#D3E4F8"/>
<path d="M18.106 18.426C18.106 15.2826 20.6779 12.7107 23.8214 12.7107H61.9256V7.94789C61.9256 4.80445 59.3537 2.23254 56.2102 2.23254H13.3432C10.1998 2.23254 7.6279 4.80445 7.6279 7.94789V61.2911C7.6279 64.4346 10.1998 67.0065 13.3432 67.0065H18.106V18.426Z" fill="#1F6DCD"/>
<path d="M61.922 62.2438H72.4002L56.2067 77.4847V67.9591C56.2067 64.8157 58.7786 62.2438 61.922 62.2438Z" fill="#ADCCF0"/>
<path d="M32.3945 37.9534H58.1136C58.9034 37.9534 59.5424 37.3132 59.5424 36.5245C59.5424 35.735 58.9032 35.0957 58.1136 35.0957H32.3945C31.605 35.0957 30.9657 35.735 30.9657 36.5245C30.9657 37.3132 31.6048 37.9534 32.3945 37.9534Z" fill="#ED1B24"/>
<path d="M32.3946 28.4279H58.1137C58.9034 28.4279 59.5425 27.7877 59.5425 26.999C59.5425 26.2094 58.9032 25.5702 58.1137 25.5702H32.3946C31.605 25.5702 30.9657 26.2094 30.9657 26.999C30.9657 27.7877 31.6048 28.4279 32.3946 28.4279Z" fill="#ED1B24"/>
<path d="M32.3945 47.4789H58.1136C58.9034 47.4789 59.5424 46.8387 59.5424 46.0501C59.5424 45.2605 58.9032 44.6212 58.1136 44.6212H32.3945C31.605 44.6212 30.9657 45.2605 30.9657 46.0501C30.9657 46.8387 31.6048 47.4789 32.3945 47.4789Z" fill="#ED1B24"/>
<path d="M32.3945 57.0045H46.6829C47.4725 57.0045 48.1117 56.3643 48.1117 55.5757C48.1117 54.7859 47.4725 54.1469 46.6829 54.1469H32.3945C31.605 54.1469 30.9657 54.7859 30.9657 55.5757C30.9657 56.3643 31.6048 57.0045 32.3945 57.0045Z" fill="#ED1B24"/>
</svg>
