<svg width="80" height="80" viewBox="0 0 80 80" fill="none" xmlns="http://www.w3.org/2000/svg">
<path d="M76.3014 39.9182C76.3014 59.9085 60.0975 76.1154 40.1042 76.1154C20.1109 76.1154 3.90698 59.9085 3.90698 39.9182C3.90698 19.9278 20.1109 3.72095 40.1042 3.72095C60.0975 3.72095 76.3014 19.9278 76.3014 39.9182Z" fill="#D3E4F8"/>
<path d="M14.3069 54.3543L15.4766 53.3055C16.2567 52.6063 17.0703 51.1937 17.2846 50.1688L17.5428 48.9276C17.7572 47.9027 17.3399 46.4443 16.6141 45.6889L15.3196 44.3373C14.5947 43.581 14.7395 42.5256 15.6405 41.9922L17.9533 40.6223C18.8554 40.088 20.3136 40.1165 21.1947 40.6834L23.5028 42.1693C24.384 42.736 25.8623 42.7989 26.7873 42.3085L29.6098 40.811C30.5358 40.3195 31.4844 39.083 31.7198 38.061L32.1771 36.0702C32.4124 35.049 32.2467 33.4344 31.8094 32.4828L30.1949 28.9688C29.7577 28.0162 30.1778 26.878 31.1294 26.4387L34.9501 24.6746C35.9017 24.2356 36.8342 23.0333 37.0228 22.0026L37.5867 18.9288C37.7754 17.8981 37.4325 16.3569 36.8256 15.5033L34.6528 12.4503C34.045 11.5967 33.965 10.1489 34.4747 9.23351L35.8673 6.73025C36.3036 5.94718 36.9694 4.73658 37.4656 3.82495C18.7058 5.17937 3.90693 20.8156 3.90693 39.9182C3.90693 47.1643 6.04442 53.9074 9.71084 59.5675C10.3538 58.7645 11.1845 57.7319 11.7274 57.0622C12.3657 56.2726 13.5278 55.0543 14.3069 54.3543Z" fill="#1F6DCD"/>
<path d="M76.3013 39.9181C76.3013 39.1884 76.2738 38.4673 76.2308 37.7492C75.2669 37.3691 74.0133 36.7881 73.2275 36.3518L71.0442 35.1391C70.1288 34.6296 68.5352 34.3637 67.5035 34.5447L60.8414 35.7211C59.8098 35.9031 58.5819 36.8193 58.1132 37.7566L56.754 40.4751C56.2853 41.4115 56.0881 43.0147 56.3158 44.0378L57.94 51.3449C58.1677 52.3671 57.54 53.4757 56.5463 53.8072L52.8103 55.0523C51.8168 55.3838 50.4327 56.2954 49.7365 57.0783L47.3655 59.7464C46.6691 60.5295 45.2442 61.1038 44.2001 61.0229L40.0355 60.7029C38.9904 60.6219 38.3828 59.7351 38.6838 58.7311L39.4269 56.2554C39.7279 55.2515 39.2477 53.976 38.359 53.4206L36.6892 52.3765C35.8005 51.8212 34.5594 52.0526 33.9305 52.891L28.8639 59.6446C28.2353 60.4818 28.4066 61.6831 29.2449 62.3109L31.0976 63.7006C31.9359 64.3284 32.3826 65.6658 32.0902 66.6725L30.9862 70.4751C30.6937 71.482 30.3117 73.1499 30.1355 74.1834L30.0498 74.6902C33.2427 75.6113 36.6139 76.1153 40.1041 76.1153C60.0974 76.1153 76.3013 59.9084 76.3013 39.9181Z" fill="#1F6DCD"/>
<path d="M27.7209 15.1516C27.7209 21.4633 16.2902 34.2028 16.2902 34.2028C16.2902 34.2028 4.85952 21.4633 4.85952 15.1516C4.85952 8.83611 9.97952 3.72095 16.2902 3.72095C22.6028 3.72095 27.7209 8.83611 27.7209 15.1516Z" fill="#ED1B24"/>
<path d="M16.2902 19.9145C18.9206 19.9145 21.053 17.7821 21.053 15.1517C21.053 12.5213 18.9206 10.3889 16.2902 10.3889C13.6598 10.3889 11.5274 12.5213 11.5274 15.1517C11.5274 17.7821 13.6598 19.9145 16.2902 19.9145Z" fill="#D3E4F8"/>
<path opacity="0.2" d="M26.0368 9.17529C27.1045 10.9137 27.7209 12.9608 27.7209 15.1517C27.7209 21.3576 16.6694 33.779 16.2997 34.1924L24.7032 42.5959C24.8995 42.6255 25.0995 42.6399 25.2986 42.6399C25.8368 42.6399 26.3693 42.5312 26.7875 42.3092L29.61 40.8118C30.536 40.3202 31.4846 39.0838 31.72 38.0618L32.1773 36.0709C32.4126 35.0497 32.2469 33.4352 31.8097 32.4836L30.1951 28.9695C29.7579 28.017 30.178 26.8787 31.1297 26.4395L34.9503 24.6754C35.9019 24.2363 36.8344 23.0341 37.0231 22.0034L37.3088 20.4469L26.0368 9.17529Z" fill="#1E1E1E"/>
<path d="M64.9771 30.9698C65.8078 32.0738 66.4717 33.3094 66.9403 34.643L67.5033 34.544C67.7224 34.5049 67.9682 34.4869 68.2272 34.4869C68.3167 34.4869 68.4082 34.4887 68.5016 34.4936L64.9771 30.9698Z" fill="#C2CACE"/>
<path opacity="0.2" d="M41.0567 39.2047C41.0567 35.0678 42.879 31.3718 45.7443 28.8829L37.3093 20.4479L37.0236 22.0043C36.8349 23.035 35.9015 24.2371 34.9508 24.6763L31.1302 26.4404C30.1785 26.8795 29.7585 28.0179 30.1957 28.9705L31.8102 32.4845C32.2474 33.4362 32.4132 35.0497 32.1778 36.0719L31.7205 38.0628C31.4852 39.084 30.5356 40.3214 29.6105 40.8127L26.788 42.3102C26.3698 42.5322 25.8373 42.6408 25.2991 42.6408C25.1 42.6408 24.8991 42.6255 24.7038 42.5969L34.4922 52.3854C34.8284 52.1824 35.22 52.0749 35.6115 52.0749C35.9867 52.0749 36.3622 52.1729 36.6889 52.3768L38.3586 53.4207C39.2474 53.9761 39.7274 55.2516 39.4265 56.2555L39.1808 57.0737L43.0414 60.9335L44.1998 61.0229C44.2654 61.0278 44.3332 61.0306 44.4016 61.0306C45.4208 61.0306 46.7125 60.481 47.365 59.7465L49.7359 57.0784C49.8608 56.9383 50.0132 56.7936 50.1759 56.6488C46.2682 51.5575 41.0567 43.8894 41.0567 39.2047Z" fill="#1E1E1E"/>
<path opacity="0.2" d="M68.5018 34.4942C68.4084 34.4894 68.3171 34.4875 68.2274 34.4875C67.9692 34.4875 67.7236 34.5056 67.5035 34.5447L66.9405 34.6436C67.4416 36.0706 67.7283 37.6014 67.7283 39.2046C67.7283 46.6983 54.3924 61.8269 54.3924 61.8269C54.3924 61.8269 52.5178 59.7008 50.1746 56.6468C50.0116 56.7915 49.8592 56.9363 49.7346 57.0764L47.3636 59.7445C46.7111 60.479 45.4194 61.0286 44.4003 61.0286C44.3316 61.0286 44.2641 61.0267 44.1984 61.0209L43.0401 60.9315L55.0185 72.9099C66.9093 67.527 75.3709 55.9058 76.23 42.2213L68.5018 34.4942Z" fill="#1E1E1E"/>
<path d="M35.6101 52.0736C35.2187 52.0736 34.8271 52.1802 34.4909 52.3841L39.1794 57.0727L39.4252 56.2544C39.7262 55.2505 39.246 53.975 38.3573 53.4197L36.6875 52.3756C36.3606 52.1709 35.9854 52.0736 35.6101 52.0736Z" fill="#1CA8D7"/>
<path d="M67.7283 39.2047C67.7283 46.6985 54.3925 61.827 54.3925 61.827C54.3925 61.827 41.0567 46.6985 41.0567 39.2047C41.0567 31.7052 47.0273 25.6307 54.3925 25.6307C61.7568 25.6307 67.7283 31.7052 67.7283 39.2047Z" fill="#ED1B24"/>
<path d="M54.3925 44.6809C57.549 44.6809 60.1078 42.1221 60.1078 38.9656C60.1078 35.8091 57.549 33.2502 54.3925 33.2502C51.236 33.2502 48.6771 35.8091 48.6771 38.9656C48.6771 42.1221 51.236 44.6809 54.3925 44.6809Z" fill="#D3E4F8"/>
</svg>
