<svg width="80" height="80" viewBox="0 0 80 80" fill="none" xmlns="http://www.w3.org/2000/svg">
<path d="M32.8834 65.1043C33.1026 64.6567 33.3225 64.2366 33.5511 63.884L56.7658 27.202H56.7649L61.8516 19.1718C62.665 17.8887 64.1301 17.2667 65.5476 17.442V12.9423H7.44153V63.5802C7.44153 66.7227 10.0144 69.2956 13.1569 69.2956H31.4155C31.7403 67.9077 32.2756 66.3665 32.8834 65.1043Z" fill="#D3E4F8"/>
<path d="M32.208 22.6185C32.208 20.5219 30.4943 18.8082 28.3978 18.8082H18.8722C16.7756 18.8082 15.062 20.5219 15.062 22.6185V32.144C15.062 34.2406 16.7756 35.9543 18.8722 35.9543H28.3978C30.4943 35.9543 32.208 34.2406 32.208 32.144V22.6185Z" fill="#ED1B24"/>
<path d="M32.2079 45.4798C32.2079 43.3842 30.4933 41.6696 28.3976 41.6696H18.8721C16.7764 41.6696 15.0618 43.3842 15.0618 45.4798V55.0054C15.0618 57.101 16.7764 58.8156 18.8721 58.8156H28.3976C30.4933 58.8156 32.2079 57.101 32.2079 55.0054V45.4798Z" fill="#ED1B24"/>
<path d="M65.5476 35.9658L44.6579 68.9757L45.1827 69.2938H59.832C62.9745 69.2938 65.5474 66.721 65.5474 63.5785V35.9658" fill="#D3E4F8"/>
<path opacity="0.2" d="M29.7256 24.1272C29.9027 24.5882 29.8389 25.1274 29.5064 25.5389L24.4798 31.7201C24.238 32.0163 23.8882 32.204 23.5083 32.2403C23.2558 32.2651 23.0063 32.2156 22.7786 32.1118L26.6194 35.9534H28.3969C30.4934 35.9534 32.2071 34.2398 32.2071 32.1432V26.6079L29.7256 24.1272Z" fill="#1E1E1E"/>
<path d="M18.9095 28.9596L22.4559 31.9163C22.7493 32.1611 23.1294 32.2783 23.5085 32.2411C23.8877 32.2048 24.2382 32.0173 24.4801 31.7209L29.5067 25.5397C30.003 24.9272 29.9115 24.0281 29.299 23.5298C28.6856 23.0325 27.7874 23.125 27.2892 23.7365L23.1761 28.7955L20.7403 26.7646C20.1336 26.2597 19.2315 26.3418 18.7275 26.9475C18.2216 27.5537 18.3026 28.4547 18.9095 28.9596Z" fill="#1E1E1E"/>
<path d="M65.5478 0.558105H7.44174V12.9414H65.5478V0.558105Z" fill="#1F6DCD"/>
<path d="M57.1252 22.5184C57.211 22.3803 57.3633 22.3012 57.531 22.3003C57.6204 22.3012 57.7004 22.3223 57.7816 22.3736L59.239 23.2966L60.7689 20.8819L59.3086 19.958C58.759 19.6103 58.138 19.4417 57.5311 19.4426C56.432 19.4417 55.344 19.9894 54.7086 20.9933L54.7096 20.9915L46.0165 34.7284C45.5946 35.3952 45.7936 36.2772 46.4595 36.7001C47.1254 37.1221 48.0093 36.923 48.4312 36.2571L57.1233 22.5202L57.1252 22.5184Z" fill="#1E1E1E"/>
<path d="M56.7661 27.2023L66.9948 33.6787L43.7817 70.3617C43.5531 70.7141 43.2768 71.0951 42.9635 71.4867L32.8835 65.1046C33.1027 64.657 33.3226 64.2378 33.5512 63.8843L56.7661 27.2023Z" fill="#1E1E1E"/>
<path d="M32.8834 65.1034L42.9616 71.4855C41.7337 73.0191 39.9143 74.6861 38.4855 75.5529L33.4179 78.6011C31.6271 79.687 30.3325 78.8679 30.5413 76.7817L31.1318 70.8948C31.3031 69.228 32.0271 66.8848 32.8834 65.1034Z" fill="#1F6DCD"/>
<path d="M70.9009 20.3903C72.6726 21.5047 73.206 23.8766 72.0812 25.6389L66.9945 33.6785L56.7649 27.2011L61.8516 19.171C62.9757 17.3992 65.3379 16.8658 67.1096 17.9898L70.9009 20.3903Z" fill="#1F6DCD"/>
</svg>
